<svg xmlns="http://www.w3.org/2000/svg" viewBox="0 0 1695.58 181.53"><defs><style>.cls-1{fill:#3c4043;}.cls-2{fill:#202124;opacity:0.1;isolation:isolate;}.cls-3{fill:#5f6368;}.cls-3,.cls-4,.cls-5,.cls-6,.cls-7{fill-rule:evenodd;}.cls-4{fill:#4285f4;}.cls-5{fill:#34a853;}.cls-6{fill:#fabb05;}.cls-7{fill:#e94235;}</style></defs><g id="Layer_2" data-name="Layer 2"><g id="Layer_1-2" data-name="Layer 1"><g id="Buttons-_Save-to-phone_" data-name="Buttons-(Save-to-phone)"><g id="Language-Variations-Copy"><g id="Save-to-Google-Pay---English-_Light_" data-name="Save-to-Google-Pay---English-(Light)"><g id="buttonContent"><path id="Savetophonee" class="cls-1" d="M702.56,146.2a40.89,40.89,0,0,1-24.76-8q-11-8.06-15.17-22.6L679,108.9a30.91,30.91,0,0,0,8.75,14.94,21.42,21.42,0,0,0,15.09,5.8,22.74,22.74,0,0,0,13.93-4.25,13.78,13.78,0,0,0,5.73-11.69,14.27,14.27,0,0,0-5-11.22q-5-4.41-17.57-8.9l-7-2.48A50.56,50.56,0,0,1,674.24,80q-7.59-7.27-7.59-19.2a27.5,27.5,0,0,1,4.49-15.17A31.71,31.71,0,0,1,683.6,34.53a38.77,38.77,0,0,1,18-4.1q14.55,0,23.22,7t11.61,15.86L720.83,60a20.26,20.26,0,0,0-6.51-9.29q-4.79-4-12.38-4a20.77,20.77,0,0,0-12.77,3.87,11.87,11.87,0,0,0-5.18,9.9,11.61,11.61,0,0,0,4.64,9.45q4.65,3.7,14.55,7.12l7,2.32q14.24,4.95,22.05,12.92T740,113.54q0,10.84-5.57,18.19a33.6,33.6,0,0,1-14.17,10.91A45.7,45.7,0,0,1,702.56,146.2Zm80.91,0a33.57,33.57,0,0,1-15.17-3.32,24.85,24.85,0,0,1-10.37-9.45,26.09,26.09,0,0,1-3.72-13.85q0-12.22,9.21-19.35t23.3-7.12a54.61,54.61,0,0,1,12.54,1.32,45.9,45.9,0,0,1,8.82,2.86v-4a14.76,14.76,0,0,0-5.42-11.84q-5.42-4.58-13.93-4.57a25.48,25.48,0,0,0-11.38,2.63,22.36,22.36,0,0,0-8.59,7.28l-11.91-9.14a35.36,35.36,0,0,1,13.62-11.29,42.14,42.14,0,0,1,18.57-4q17.18,0,26.47,8.44t9.29,23.76v49.22H808.08v-9.44h-.77a26.74,26.74,0,0,1-9.6,8.51A29.09,29.09,0,0,1,783.47,146.2Zm2.94-14.08a21.39,21.39,0,0,0,11.14-2.94,20.89,20.89,0,0,0,7.74-7.9,21.39,21.39,0,0,0,2.79-10.68,34.79,34.79,0,0,0-8.28-3.25,38.88,38.88,0,0,0-9.83-1.23q-9.6,0-14.09,3.79a12.26,12.26,0,0,0-4.48,9.83,11.1,11.1,0,0,0,4.17,8.9Q779.76,132.12,786.41,132.12Zm48.25-67.33h19l21.82,57h.62l22.29-57H917l-32.81,78.94h-17ZM963.39,146.2a40.3,40.3,0,0,1-20.82-5.41,38.29,38.29,0,0,1-14.39-14.94A44.05,44.05,0,0,1,923,104.41a44.71,44.71,0,0,1,5-21A39.56,39.56,0,0,1,942,68a37.18,37.18,0,0,1,20.43-5.73q11.92,0,20.67,5.26A34.44,34.44,0,0,1,996.44,82a45.45,45.45,0,0,1,4.57,20.58,39.5,39.5,0,0,1-.47,5.42H940q.93,11,7.82,17a23.74,23.74,0,0,0,16,6,23.33,23.33,0,0,0,12.61-3.33,24.91,24.91,0,0,0,8.59-9l14.4,6.81a42.45,42.45,0,0,1-14.55,15.32Q975.93,146.21,963.39,146.2ZM983.67,95A19.65,19.65,0,0,0,981,86.69a19,19,0,0,0-7-6.89A22.34,22.34,0,0,0,962.46,77a20.48,20.48,0,0,0-13.85,4.87A25.35,25.35,0,0,0,940.79,95Zm104.7,50a28.47,28.47,0,0,1-9.91-1.71,21.66,21.66,0,0,1-7.58-4.49q-6.66-6.65-6.66-18.11V79.8h-13.77v-15h13.77V42.5h17V64.79h19.19v15h-19.19V117q0,6.35,2.48,9c1.54,2.06,4.23,3.09,8,3.09a14.31,14.31,0,0,0,4.65-.69,19.82,19.82,0,0,0,4.33-2.25v16.56A29.73,29.73,0,0,1,1088.37,145Zm63.88,1.23a41.73,41.73,0,0,1-21.36-5.49,38.56,38.56,0,0,1-14.7-15.09,43.68,43.68,0,0,1-5.27-21.36,43.68,43.68,0,0,1,5.27-21.36,38.56,38.56,0,0,1,14.7-15.09,44,44,0,0,1,42.72.07,39.2,39.2,0,0,1,14.71,15.17,45.7,45.7,0,0,1,0,42.57,38.59,38.59,0,0,1-14.71,15.09A41.68,41.68,0,0,1,1152.25,146.2Zm0-15.63a24,24,0,0,0,12.07-3.17,23.28,23.28,0,0,0,8.9-9.13,28.3,28.3,0,0,0,3.33-14,27.8,27.8,0,0,0-3.33-13.93,23.42,23.42,0,0,0-8.9-9.06,24.56,24.56,0,0,0-24.14,0,23.49,23.49,0,0,0-8.9,9.06,27.8,27.8,0,0,0-3.33,13.93,28.3,28.3,0,0,0,3.33,14,23.35,23.35,0,0,0,8.9,9.13A24,24,0,0,0,1152.25,130.57Zm95.88-65.78h16.25V75.16h.77A27.13,27.13,0,0,1,1275.22,66a30.21,30.21,0,0,1,15-3.72,35.79,35.79,0,0,1,19.35,5.42,38.35,38.35,0,0,1,13.7,14.94,45.52,45.52,0,0,1,5,21.59,45.54,45.54,0,0,1-5,21.59,38.42,38.42,0,0,1-13.7,14.94,35.78,35.78,0,0,1-19.35,5.41,30.21,30.21,0,0,1-15-3.71,27.76,27.76,0,0,1-10.07-9h-.77l.77,11v32.66h-17Zm39.62,65.78a22.15,22.15,0,0,0,11.61-3.25A23.61,23.61,0,0,0,1308,118a28.53,28.53,0,0,0,3.25-13.77,28.11,28.11,0,0,0-3.25-13.7,23.79,23.79,0,0,0-8.67-9.21,22.15,22.15,0,0,0-11.61-3.25,21.77,21.77,0,0,0-11.53,3.25,24,24,0,0,0-8.59,9.21,28.11,28.11,0,0,0-3.25,13.7,28.53,28.53,0,0,0,3.25,13.77,23.79,23.79,0,0,0,8.59,9.29A21.77,21.77,0,0,0,1287.75,130.57Zm56.14-97.67h17V63.09l-.77,12.07h.77A25.9,25.9,0,0,1,1371.06,66a29.92,29.92,0,0,1,14.47-3.64q14.4,0,22,8.44t7.59,23v50h-17V96.05q0-9-4.72-13.46T1381,78.1a17.28,17.28,0,0,0-10.29,3.25,22.69,22.69,0,0,0-7.2,8.59,25.45,25.45,0,0,0-2.63,11.38v42.41h-17Zm129.2,113.3a41.73,41.73,0,0,1-21.36-5.49,38.63,38.63,0,0,1-14.7-15.09,43.67,43.67,0,0,1-5.26-21.36A43.67,43.67,0,0,1,1437,82.9a38.63,38.63,0,0,1,14.7-15.09,44,44,0,0,1,42.72.07,39.2,39.2,0,0,1,14.71,15.17,43.37,43.37,0,0,1,5.26,21.21,43.67,43.67,0,0,1-5.26,21.36,38.59,38.59,0,0,1-14.71,15.09A41.68,41.68,0,0,1,1473.09,146.2Zm0-15.63a24.06,24.06,0,0,0,12.08-3.17,23.41,23.41,0,0,0,8.9-9.13,28.3,28.3,0,0,0,3.33-14,27.8,27.8,0,0,0-3.33-13.93,23.56,23.56,0,0,0-8.9-9.06,24.58,24.58,0,0,0-24.15,0,23.56,23.56,0,0,0-8.9,9.06,27.8,27.8,0,0,0-3.33,13.93,28.3,28.3,0,0,0,3.33,14,23.41,23.41,0,0,0,8.9,9.13A24.05,24.05,0,0,0,1473.09,130.57Zm57.08-65.78h16.25V75.16h.77A25.9,25.9,0,0,1,1557.33,66a29.63,29.63,0,0,1,14.32-3.64q14.38,0,21.9,8.44t7.51,23v50h-17V96.05q0-9.28-4.57-13.62t-12.61-4.33a17.32,17.32,0,0,0-10.22,3.17,21.15,21.15,0,0,0-7,8.44,26.21,26.21,0,0,0-2.48,11.3v42.72h-17ZM1658,146.2a40.3,40.3,0,0,1-20.82-5.41,38.22,38.22,0,0,1-14.39-14.94,44.05,44.05,0,0,1-5.19-21.44,44.82,44.82,0,0,1,5-21,39.66,39.66,0,0,1,14-15.4A37.18,37.18,0,0,1,1657,62.31q11.93,0,20.67,5.26A34.51,34.51,0,0,1,1691,82a45.45,45.45,0,0,1,4.56,20.58,39.28,39.28,0,0,1-.46,5.42H1634.6q.93,11,7.82,17a23.74,23.74,0,0,0,16,6,23.33,23.33,0,0,0,12.61-3.33,25,25,0,0,0,8.59-9l14.4,6.81a42.45,42.45,0,0,1-14.55,15.32Q1670.51,146.21,1658,146.2ZM1678.25,95a19.65,19.65,0,0,0-2.63-8.28,18.91,18.91,0,0,0-7-6.89A22.28,22.28,0,0,0,1657,77a20.46,20.46,0,0,0-13.85,4.87A25.29,25.29,0,0,0,1635.37,95Z"/><rect id="Rectangle" class="cls-2" x="552.8" width="11.06" height="176.9"/><g id="Gpay-logo-18px-h"><g id="GPay"><g id="Pay"><path id="Fill-1" class="cls-3" d="M213,29.13V74.27h27.84a22,22,0,0,0,16.45-6.68,22,22,0,0,0,0-31.61,21.72,21.72,0,0,0-16.45-6.86H213Zm0,61v52.37H196.36V13.24h44.1A39.88,39.88,0,0,1,269,24.44,36,36,0,0,1,281,51.7,35.77,35.77,0,0,1,269,79.14q-11.56,11-28.56,11H213Z"/><path id="Fill-3" class="cls-3" d="M297.76,115.44a13.26,13.26,0,0,0,5.52,10.84,20.33,20.33,0,0,0,12.92,4.33q10.49,0,18.7-7.76t8.23-18.23q-7.78-6.15-21.69-6.14-10.14,0-16.9,4.88c-4.52,3.25-6.78,7.26-6.78,12.08m21.52-64.28q18.44,0,29.11,9.84T359,88v54.53h-15.9V130.25h-.73q-10.29,15.17-27.47,15.17-14.64,0-24.49-8.67a27.67,27.67,0,0,1-9.86-21.67q0-13.72,10.39-21.84t27.75-8.13q14.81,0,24.4,5.41V86.73A19,19,0,0,0,336.26,72a23.59,23.59,0,0,0-16.08-6q-13.94,0-22.06,11.74l-14.65-9.22q12.12-17.32,35.81-17.33"/><polygon id="Fill-5" class="cls-3" points="450.33 54.05 394.83 181.53 377.66 181.53 398.27 136.92 361.75 54.05 379.83 54.05 406.22 117.61 406.58 117.61 432.25 54.05 450.33 54.05"/></g><g id="G"><path id="Fill-8" class="cls-4" d="M145.79,78.87a88,88,0,0,0-1.28-15.1H74.37V92.38h40.17A34.39,34.39,0,0,1,99.69,115v18.58h24c14-12.94,22.13-32.06,22.13-54.67"/><path id="Fill-10" class="cls-5" d="M74.37,151.47c20.07,0,37-6.58,49.29-17.93L99.69,115c-6.67,4.49-15.27,7.11-25.32,7.11C55,122.07,38.51,109,32.62,91.4H7.92v19.14a74.38,74.38,0,0,0,66.45,40.93"/><path id="Fill-12" class="cls-6" d="M32.62,91.4a44.56,44.56,0,0,1,0-28.44V43.82H7.92a74.22,74.22,0,0,0,0,66.72Z"/><path id="Fill-14" class="cls-7" d="M74.37,32.3A40.39,40.39,0,0,1,102.9,43.44h0l21.23-21.2A71.51,71.51,0,0,0,74.37,2.89,74.38,74.38,0,0,0,7.92,43.82L32.62,63C38.51,45.36,55,32.3,74.37,32.3"/></g></g></g></g></g></g></g></g></g></svg>